FFmpeg version SVN-r25716, Copyright (c) 2000-2010 the FFmpeg developers  built on Nov 10 2010 12:23:18 with gcc 4.1.2 20080704 (Red Hat 4.1.2-48)  configuration: --enable-libmp3lame --enable-shared --disable-mmx --arch=x86_64  libavutil     50.33. 0 / 50.33. 0  libavcore      0.12. 1 /  0.12. 1  libavcodec    52.94. 4 / 52.94. 4  libavformat   52.84. 0 / 52.84. 0  libavdevice   52. 2. 2 / 52. 2. 2  libavfilter    1.59. 0 /  1.59. 0  libswscale     0.12. 0 /  0.12. 0Seems stream 0 codec frame rate differs from container frame rate: 1000.00 (1000/1) -> 30.00 (30/1)Input #0, mov,mp4,m4a,3gp,3g2,mj2, from '/RAID10/data/converted_video_files/34521.mpeg':  Metadata:    major_brand     : qt      minor_version   : 537199360    compatible_brands: qt    Duration: 00:00:23.33, start: 0.000000, bitrate: 1758 kb/s    Stream #0.0(eng): Video: mpeg4, yuv420p, 200x200 [PAR 1:1 DAR 1:1], 1755 kb/s, 30 fps, 30 tbr, 600 tbn, 1k tbc[buffer @ 0xf1fbdd0] w:200 h:200 pixfmt:yuv420pOutput #0, flv, to '/RAID10/data/converted_video_files/34521.flv':  Metadata:    encoder         : Lavf52.84.0    Stream #0.0(eng): Video: flv, yuv420p, 200x200 [PAR 1:1 DAR 1:1], q=2-31, 600 kb/s, 1k tbn, 24 tbcStream mapping:  Stream #0.0 -> #0.0Press [q] to stop encodingframe=  217 fps=  0 q=2.5 size=     756kB time=9.04 bitrate= 685.1kbits/s dup=0 drop=54    frame=  424 fps=412 q=3.3 size=    1386kB time=17.67 bitrate= 642.8kbits/s dup=0 drop=105    frame=  560 fps=410 q=3.6 Lsize=    1800kB time=23.33 bitrate= 631.8kbits/s dup=0 drop=140    video:1791kB audio:0kB global headers:0kB muxing overhead 0.500085%